<svg xmlns="http://www.w3.org/2000/svg" width="112" height="112" viewBox="0 0 112 112" fill="none" class="w-28 max-w-full h-auto">
    <circle cx="56" cy="56" r="54" stroke="#B3BAEB" stroke-width="4"></circle>
    <mask id="mask0_846_475" style="mask-type:alpha" maskUnits="userSpaceOnUse" x="0" y="0" width="112" height="112">
        <circle cx="56" cy="56" r="56" fill="#B3BAEB"></circle>
    </mask>
    <g mask="url(#mask0_846_475)">
        <circle cx="56" cy="152" r="64" fill="#B3BAEB"></circle>
        <rect x="101.112" y="39.479" width="8" height="4" rx="2" transform="rotate(157.5 101.112 39.479)" fill="#D4D9F5"></rect>
        <rect x="76.2166" y="12.4191" width="8" height="4" rx="2" transform="rotate(112.5 76.2166 12.4191)" fill="#D4D9F5"></rect>
        <rect x="39.4788" y="10.8884" width="8" height="4" rx="2" transform="rotate(67.5 39.4788 10.8884)" fill="#D4D9F5"></rect>
        <rect x="12.4192" y="35.7834" width="8" height="4" rx="2" transform="rotate(22.5 12.4192 35.7834)" fill="#D4D9F5"></rect>
        <rect x="8" y="54" width="12" height="4" rx="2" fill="#B3BAEB"></rect>
        <rect x="104" y="58" width="12" height="4" rx="2" transform="rotate(-180 104 58)" fill="#B3BAEB"></rect>
        <rect x="23.4731" y="20.6448" width="12" height="4" rx="2" transform="rotate(45 23.4731 20.6448)" fill="#B3BAEB"></rect>
        <rect x="58" y="8" width="12" height="4" rx="2" transform="rotate(90 58 8)" fill="#B3BAEB"></rect>
        <rect x="91.3555" y="23.4731" width="12" height="4" rx="2" transform="rotate(135 91.3555 23.4731)" fill="#B3BAEB"></rect>
    </g>
    <path d="M79.0401 33.6549C79.1759 33.4564 79.1511 33.1892 78.981 33.019C78.8108 32.8489 78.5436 32.8241 78.3451 32.9599L51.475 51.3447C51.4495 51.3622 51.4257 51.3819 51.4038 51.4038C50.1848 52.6228 49.5 54.2761 49.5 56C49.5 57.7239 50.1848 59.3772 51.4038 60.5962C52.6228 61.8152 54.2761 62.5 56 62.5C57.7239 62.5 59.3772 61.8152 60.5962 60.5962C60.618 60.5743 60.6378 60.5505 60.6553 60.525L79.0401 33.6549Z" fill="#0A23B9" stroke="#0A23B9" stroke-linejoin="round"></path>
</svg>