<svg id="Layer_1" xmlns="http://www.w3.org/2000/svg" xmlns:xlink="http://www.w3.org/1999/xlink" viewBox="0 0 774 875.7" style="enable-background:new 0 0 774 875.7;"><style>.st0{fill:#FFFFFF;}
.st1{fill:#8ED6FB;}
.st2{fill:#1C78C0;}</style><path class="st0" d="M387 0l387 218.9v437.9L387 875.7.0 656.8V218.9L387 0z"/><path class="st1" d="M704.9 641.7 399.8 814.3V679.9l190.1-104.6L704.9 641.7zM725.8 622.8V261.9l-111.6 64.5v232l111.6 64.4zM67.9 641.7 373 814.3V679.9L182.8 575.3 67.9 641.7zM47 622.8V261.9l111.6 64.5v232L47 622.8zM60.1 238.5 373 61.5v129.9L172.5 301.7l-1.6.9C170.9 302.6 60.1 238.5 60.1 238.5zm652.6.0-312.9-177v129.9l200.5 110.2 1.6.9 110.8-64z"/><path class="st2" d="M373 649.3 185.4 546.1V341.8L373 450.1V649.3zm26.8.0 187.6-103.1V341.8L399.8 450.1V649.3zM198.1 318.2l188.3-103.5 188.3 103.5L386.4 426.9 198.1 318.2z"/></svg>